# xmcd
#
# Track frame offsets:
#  150
#  22235
#  77989
#  93345
#  110169
#  129085
#  161318
#  182900
#  210605
#  232130
#  259978
#  276255
#  287065
#  297168
#
# Disc length: 4435 seconds
#
# Revision: 0
# Processed by: cddbd v1.5.1PL2 Copyright (c) Steve Scherf et al.
# Submitted via: Collectorz.com_Music_Collector 6.11
#
DISCID=d411510e
DTITLE=Lyle Lovett and His Small Band - Paul Masson Historic Mountain Winery, Saratoga, Ca - July 15, 2000 [CD1)
DYEAR=2000
DGENRE=Alt Country
TTITLE0=It's Just The Mornin'
TTITLE1=Texas Trilogy
TTITLE2=That's My Truck Sir
TTITLE3=Don't Touch My Hat
TTITLE4=Fiona
TTITLE5=I've Been To Memphis
TTITLE6=You're Not From Texas
TTITLE7=She's No Lady
TTITLE8=Friend Of The Devil
TTITLE9=She's Already Made Up Her Mind
TTITLE10=Bears
TTITLE11=Penguins
TTITLE12=Lungs
TTITLE13=You've Been So Good Up To Now
EXTD=
EXTT0=
EXTT1=
EXTT2=
EXTT3=
EXTT4=
EXTT5=
EXTT6=
EXTT7=
EXTT8=
EXTT9=
EXTT10=
EXTT11=
EXTT12=
EXTT13=
PLAYORDER=
